<svg xmlns="http://www.w3.org/2000/svg" xmlns:xlink="http://www.w3.org/1999/xlink"><defs><symbol aria-hidden="true" class="svg-inline--fa fa-money-bill-alt fa-w-20" role="img" viewBox="0 0 640 512" id="bill"><path d="M320 144c-53.02 0-96 50.14-96 112 0 61.85 42.98 112 96 112 53 0 96-50.13 96-112 0-61.86-42.98-112-96-112zm40 168c0 4.42-3.58 8-8 8h-64c-4.42 0-8-3.58-8-8v-16c0-4.42 3.58-8 8-8h16v-55.44l-.47.31a7.992 7.992 0 0 1-11.09-2.22l-8.88-13.31a7.992 7.992 0 0 1 2.22-11.09l15.33-10.22a23.99 23.99 0 0 1 13.31-4.03H328c4.42 0 8 3.58 8 8v88h16c4.42 0 8 3.58 8 8v16zM608 64H32C14.33 64 0 78.33 0 96v320c0 17.67 14.33 32 32 32h576c17.67 0 32-14.33 32-32V96c0-17.67-14.33-32-32-32zm-16 272c-35.35 0-64 28.65-64 64H112c0-35.35-28.65-64-64-64V176c35.35 0 64-28.65 64-64h416c0 35.35 28.65 64 64 64v160z" /></symbol><symbol aria-hidden="true" class="svg-inline--fa fa-envelope fa-w-16" role="img" viewBox="0 0 512 512" id="envelope"><path d="M464 64H48C21.49 64 0 85.49 0 112v288c0 26.51 21.49 48 48 48h416c26.51 0 48-21.49 48-48V112c0-26.51-21.49-48-48-48zm0 48v40.805c-22.422 18.259-58.168 46.651-134.587 106.49-16.841 13.247-50.201 45.072-73.413 44.701-23.208.375-56.579-31.459-73.413-44.701C106.18 199.465 70.425 171.067 48 152.805V112h416zM48 400V214.398c22.914 18.251 55.409 43.862 104.938 82.646 21.857 17.205 60.134 55.186 103.062 54.955 42.717.231 80.509-37.199 103.053-54.947 49.528-38.783 82.032-64.401 104.947-82.653V400H48z" /></symbol><symbol aria-hidden="true" class="svg-inline--fa fa-envelope fa-w-16" role="img" viewBox="0 0 512 512" id="envelope-1"><path d="M464 64H48C21.49 64 0 85.49 0 112v288c0 26.51 21.49 48 48 48h416c26.51 0 48-21.49 48-48V112c0-26.51-21.49-48-48-48zm0 48v40.805c-22.422 18.259-58.168 46.651-134.587 106.49-16.841 13.247-50.201 45.072-73.413 44.701-23.208.375-56.579-31.459-73.413-44.701C106.18 199.465 70.425 171.067 48 152.805V112h416zM48 400V214.398c22.914 18.251 55.409 43.862 104.938 82.646 21.857 17.205 60.134 55.186 103.062 54.955 42.717.231 80.509-37.199 103.053-54.947 49.528-38.783 82.032-64.401 104.947-82.653V400H48z" /></symbol><symbol aria-hidden="true" class="svg-inline--fa fa-envelope fa-w-16" role="img" viewBox="0 0 512 512" id="envelope-1"><path d="M464 64H48C21.49 64 0 85.49 0 112v288c0 26.51 21.49 48 48 48h416c26.51 0 48-21.49 48-48V112c0-26.51-21.49-48-48-48zm0 48v40.805c-22.422 18.259-58.168 46.651-134.587 106.49-16.841 13.247-50.201 45.072-73.413 44.701-23.208.375-56.579-31.459-73.413-44.701C106.18 199.465 70.425 171.067 48 152.805V112h416zM48 400V214.398c22.914 18.251 55.409 43.862 104.938 82.646 21.857 17.205 60.134 55.186 103.062 54.955 42.717.231 80.509-37.199 103.053-54.947 49.528-38.783 82.032-64.401 104.947-82.653V400H48z" /></symbol><symbol viewBox="0 0 512 512" id="file">
<g>
	<g>
		<path d="M447.933,103.629c-0.034-3.076-1.224-6.09-3.485-8.352L352.683,3.511c-0.004-0.004-0.007-0.005-0.011-0.008
			C350.505,1.338,347.511,0,344.206,0H89.278C75.361,0,64.04,11.32,64.04,25.237v461.525c0,13.916,11.32,25.237,25.237,25.237
			h333.444c13.916,0,25.237-11.32,25.237-25.237V103.753C447.96,103.709,447.937,103.672,447.933,103.629z M356.194,40.931
			l50.834,50.834h-49.572c-0.695,0-1.262-0.567-1.262-1.262V40.931z M423.983,486.763c0,0.695-0.566,1.261-1.261,1.261H89.278
			c-0.695,0-1.261-0.566-1.261-1.261V25.237c0-0.695,0.566-1.261,1.261-1.261h242.94v66.527c0,13.916,11.322,25.239,25.239,25.239
			h66.527V486.763z" />
	</g>
</g>
<g>
	<g>
		<path d="M362.088,164.014H149.912c-6.62,0-11.988,5.367-11.988,11.988c0,6.62,5.368,11.988,11.988,11.988h212.175
			c6.62,0,11.988-5.368,11.988-11.988C374.076,169.381,368.707,164.014,362.088,164.014z" />
	</g>
</g>
<g>
	<g>
		<path d="M362.088,236.353H149.912c-6.62,0-11.988,5.368-11.988,11.988c0,6.62,5.368,11.988,11.988,11.988h212.175
			c6.62,0,11.988-5.368,11.988-11.988C374.076,241.721,368.707,236.353,362.088,236.353z" />
	</g>
</g>
<g>
	<g>
		<path d="M362.088,308.691H149.912c-6.62,0-11.988,5.368-11.988,11.988c0,6.621,5.368,11.988,11.988,11.988h212.175
			c6.62,0,11.988-5.367,11.988-11.988C374.076,314.06,368.707,308.691,362.088,308.691z" />
	</g>
</g>
<g>
	<g>
		<path d="M256,381.031H149.912c-6.62,0-11.988,5.368-11.988,11.988c0,6.621,5.368,11.988,11.988,11.988H256
			c6.62,0,11.988-5.367,11.988-11.988C267.988,386.398,262.62,381.031,256,381.031z" />
	</g>
</g>
<g>
</g>
<g>
</g>
<g>
</g>
<g>
</g>
<g>
</g>
<g>
</g>
<g>
</g>
<g>
</g>
<g>
</g>
<g>
</g>
<g>
</g>
<g>
</g>
<g>
</g>
<g>
</g>
<g>
</g>
</symbol><symbol viewBox="0 0 48 48" id="file"><path clip-rule="evenodd" d="M37,47H11c-2.209,0-4-1.791-4-4V5c0-2.209,1.791-4,4-4h18.973  c0.002,0,0.005,0,0.007,0h0.02H30c0.32,0,0.593,0.161,0.776,0.395l9.829,9.829C40.84,11.407,41,11.68,41,12l0,0v0.021  c0,0.002,0,0.003,0,0.005V43C41,45.209,39.209,47,37,47z M31,4.381V11h6.619L31,4.381z M39,13h-9c-0.553,0-1-0.448-1-1V3H11  C9.896,3,9,3.896,9,5v38c0,1.104,0.896,2,2,2h26c1.104,0,2-0.896,2-2V13z M33,39H15c-0.553,0-1-0.447-1-1c0-0.552,0.447-1,1-1h18  c0.553,0,1,0.448,1,1C34,38.553,33.553,39,33,39z M33,31H15c-0.553,0-1-0.447-1-1c0-0.552,0.447-1,1-1h18c0.553,0,1,0.448,1,1  C34,30.553,33.553,31,33,31z M33,23H15c-0.553,0-1-0.447-1-1c0-0.552,0.447-1,1-1h18c0.553,0,1,0.448,1,1C34,22.553,33.553,23,33,23  z" fill-rule="evenodd" /></symbol><symbol aria-hidden="true" class="svg-inline--fa fa-percent fa-w-14" role="img" viewBox="0 0 448 512" id="percent"><path d="M112 224c61.9 0 112-50.1 112-112S173.9 0 112 0 0 50.1 0 112s50.1 112 112 112zm0-160c26.5 0 48 21.5 48 48s-21.5 48-48 48-48-21.5-48-48 21.5-48 48-48zm224 224c-61.9 0-112 50.1-112 112s50.1 112 112 112 112-50.1 112-112-50.1-112-112-112zm0 160c-26.5 0-48-21.5-48-48s21.5-48 48-48 48 21.5 48 48-21.5 48-48 48zM392.3.2l31.6-.1c19.4-.1 30.9 21.8 19.7 37.8L77.4 501.6a23.95 23.95 0 0 1-19.6 10.2l-33.4.1c-19.5 0-30.9-21.9-19.7-37.8l368-463.7C377.2 4 384.5.2 392.3.2z" /></symbol><symbol viewBox="0 0 1000 1000" id="qiwi">
<metadata> Svg Vector Icons : http://www.onlinewebfonts.com/icon </metadata>
<g><path d="M967.9,984.1c-1.4-6.1-3.1-12.3-5.6-17.9c-15.4-34.4-38.8-62.7-67.3-87c-29.9-25.7-62.4-47.5-99.4-61.6c-37.9-14.3-77.8-19.8-117.5-25.6c-23.7-3.4-47.2-7.1-69-17.2c-31.6-14.5-61.8-31.3-83.4-59.8c-7.1-9.4-13.7-19.2-21-29.5c-3.8,23.1,0.2,44.7,6.8,66.8c-4.3,0-8,0.4-11.6-0.1c-18.8-2.7-37.7-4.5-56.1-8.8c-34.2-7.8-67-19.8-98-36.4c-44.8-24-84.9-54.2-115-95.4c-54.6-74.8-79.4-159.1-72.7-252c3.2-45.5,15.1-88.6,37.5-128.3c40.9-72.3,100.6-118.3,184.5-130c32.8-4.7,65.5-2.8,97.6,4.2c36.2,7.9,70.4,21.4,102.4,40.2c64.4,37.9,114.5,89.5,150.7,154.7c38.5,69.6,56.6,143.8,47.5,223.5c-2.1,18.1-6.6,36-10.2,54.9c-43.7-30.7-90.8-28.6-105.9-19.7c63.5-4,133.8,53.3,148.6,128.8c2.1-2.5,3.7-4.2,5.1-6c48-63.1,77.5-134,88-212.7c5.5-42.1,4.8-84.3-3.1-126.1C884,254.3,843,178.7,775.8,117.8C700.3,49.4,610.4,15.4,509.3,10.5c-41.9-2-83.1,2.6-123.9,12.3c-46,11.1-89.2,28.7-129.7,53c-58.1,34.8-106.8,79.7-145.2,135.9C64.3,278.7,38,352.8,32.9,434.1c-3.5,54.8,3.8,108.3,22.1,160.3c26.3,74.7,70.6,135.4,136,180.5c52.1,35.8,109.5,58.9,170.8,72.6c33.4,7.5,67.3,11.7,101.6,12.1c35.6,0.4,71-2.1,105.7-11.1c19-4.8,38.2-9.4,57.5-12.1c45.3-6.3,90.3-1.5,134.4,9.5c43.1,10.8,83.1,29.2,118.8,55.8c31.6,23.6,61.5,49.2,80.1,85.2c0.9,1.5,3.6,2.1,5.4,3.1C966.2,988,968.3,985.8,967.9,984.1z M670.1,718.2c-0.1,17.4,14.3,33.1,30.6,33.2c11.9,0.1,21.4-9.6,21.4-22.1c0.2-17.5-14.2-33.3-30.3-33.4C679.1,695.8,670.2,704.9,670.1,718.2z M768,667.1c-2.1,1-4.2,6.6-3.4,9.2c3.1,10.4,7,20.6,11.7,30.4c1.5,3.3,6.7,8.6,9.9,7.3c5.5-2,5.5-5.9,5.5-9.9c-2-14.3-4.3-26-14-34.4C775.4,667.6,770.4,666,768,667.1z" /></g>
</symbol><symbol viewBox="0 0 1000 1000" id="qiwi">
<metadata> Svg Vector Icons : http://www.onlinewebfonts.com/icon </metadata>
<g><path d="M967.9,984.1c-1.4-6.1-3.1-12.3-5.6-17.9c-15.4-34.4-38.8-62.7-67.3-87c-29.9-25.7-62.4-47.5-99.4-61.6c-37.9-14.3-77.8-19.8-117.5-25.6c-23.7-3.4-47.2-7.1-69-17.2c-31.6-14.5-61.8-31.3-83.4-59.8c-7.1-9.4-13.7-19.2-21-29.5c-3.8,23.1,0.2,44.7,6.8,66.8c-4.3,0-8,0.4-11.6-0.1c-18.8-2.7-37.7-4.5-56.1-8.8c-34.2-7.8-67-19.8-98-36.4c-44.8-24-84.9-54.2-115-95.4c-54.6-74.8-79.4-159.1-72.7-252c3.2-45.5,15.1-88.6,37.5-128.3c40.9-72.3,100.6-118.3,184.5-130c32.8-4.7,65.5-2.8,97.6,4.2c36.2,7.9,70.4,21.4,102.4,40.2c64.4,37.9,114.5,89.5,150.7,154.7c38.5,69.6,56.6,143.8,47.5,223.5c-2.1,18.1-6.6,36-10.2,54.9c-43.7-30.7-90.8-28.6-105.9-19.7c63.5-4,133.8,53.3,148.6,128.8c2.1-2.5,3.7-4.2,5.1-6c48-63.1,77.5-134,88-212.7c5.5-42.1,4.8-84.3-3.1-126.1C884,254.3,843,178.7,775.8,117.8C700.3,49.4,610.4,15.4,509.3,10.5c-41.9-2-83.1,2.6-123.9,12.3c-46,11.1-89.2,28.7-129.7,53c-58.1,34.8-106.8,79.7-145.2,135.9C64.3,278.7,38,352.8,32.9,434.1c-3.5,54.8,3.8,108.3,22.1,160.3c26.3,74.7,70.6,135.4,136,180.5c52.1,35.8,109.5,58.9,170.8,72.6c33.4,7.5,67.3,11.7,101.6,12.1c35.6,0.4,71-2.1,105.7-11.1c19-4.8,38.2-9.4,57.5-12.1c45.3-6.3,90.3-1.5,134.4,9.5c43.1,10.8,83.1,29.2,118.8,55.8c31.6,23.6,61.5,49.2,80.1,85.2c0.9,1.5,3.6,2.1,5.4,3.1C966.2,988,968.3,985.8,967.9,984.1z M670.1,718.2c-0.1,17.4,14.3,33.1,30.6,33.2c11.9,0.1,21.4-9.6,21.4-22.1c0.2-17.5-14.2-33.3-30.3-33.4C679.1,695.8,670.2,704.9,670.1,718.2z M768,667.1c-2.1,1-4.2,6.6-3.4,9.2c3.1,10.4,7,20.6,11.7,30.4c1.5,3.3,6.7,8.6,9.9,7.3c5.5-2,5.5-5.9,5.5-9.9c-2-14.3-4.3-26-14-34.4C775.4,667.6,770.4,666,768,667.1z" /></g>
</symbol><symbol aria-hidden="true" class="svg-inline--fa fa-search fa-w-16" role="img" viewBox="0 0 512 512" id="search"><path d="M505 442.7L405.3 343c-4.5-4.5-10.6-7-17-7H372c27.6-35.3 44-79.7 44-128C416 93.1 322.9 0 208 0S0 93.1 0 208s93.1 208 208 208c48.3 0 92.7-16.4 128-44v16.3c0 6.4 2.5 12.5 7 17l99.7 99.7c9.4 9.4 24.6 9.4 33.9 0l28.3-28.3c9.4-9.4 9.4-24.6.1-34zM208 336c-70.7 0-128-57.2-128-128 0-70.7 57.2-128 128-128 70.7 0 128 57.2 128 128 0 70.7-57.2 128-128 128z" /></symbol><symbol viewBox="0 0 448 448" id="vk">
<g>
	<path d="M321.939,210.326C340.689,188.055,352,159.322,352,128C352,57.42,294.578,0,224,0h-64H96H64v448h32h64h96
		c70.578,0,128-57.421,128-128C384,273.521,359.102,232.752,321.939,210.326z M160,64h50.75c27.984,0,50.75,28.71,50.75,64
		s-22.766,64-50.75,64H160V64z M239.5,384H160V256h79.5c29.225,0,53,28.71,53,64S268.725,384,239.5,384z" />
</g>
<g>
</g>
<g>
</g>
<g>
</g>
<g>
</g>
<g>
</g>
<g>
</g>
<g>
</g>
<g>
</g>
<g>
</g>
<g>
</g>
<g>
</g>
<g>
</g>
<g>
</g>
<g>
</g>
<g>
</g>
</symbol><symbol viewBox="0 0 448 448" id="vk">
<g>
	<path d="M321.939,210.326C340.689,188.055,352,159.322,352,128C352,57.42,294.578,0,224,0h-64H96H64v448h32h64h96
		c70.578,0,128-57.421,128-128C384,273.521,359.102,232.752,321.939,210.326z M160,64h50.75c27.984,0,50.75,28.71,50.75,64
		s-22.766,64-50.75,64H160V64z M239.5,384H160V256h79.5c29.225,0,53,28.71,53,64S268.725,384,239.5,384z" />
</g>
<g>
</g>
<g>
</g>
<g>
</g>
<g>
</g>
<g>
</g>
<g>
</g>
<g>
</g>
<g>
</g>
<g>
</g>
<g>
</g>
<g>
</g>
<g>
</g>
<g>
</g>
<g>
</g>
<g>
</g>
</symbol><symbol viewBox="0 0 50 50" id="webmoney">
    <path d="M 24.388672 2.0332031 C 17.937373 2.1752637 11.208281 5.0090625 6.5351562 11.289062 C -1.0308437 21.461063 0.96507813 35.527547 11.080078 43.310547 C 15.375078 46.615547 20.271547 48.033203 24.935547 48.033203 C 30.038547 48.033203 34.846875 46.321016 38.296875 43.541016 L 38.34375 43.595703 L 39.845703 42.275391 L 34.755859 36.480469 L 32.634766 38.423828 C 31.513766 39.445828 30.433859 40.431312 29.380859 41.445312 C 27.678859 39.502313 25.952516 37.578297 24.228516 35.654297 C 23.397516 34.727297 22.567281 33.799141 21.738281 32.869141 C 21.690281 32.816141 21.644609 32.761078 21.599609 32.705078 L 24.029297 30.433594 L 17.773438 23.369141 L 20.222656 21.074219 L 13.865234 13.996094 L 22.519531 6.1777344 L 25.714844 9.6347656 L 31.009766 4.9335938 C 31.054766 4.9475938 31.097578 4.9625625 31.142578 4.9765625 L 34.171875 8.2949219 L 37.003906 5.703125 C 37.003906 5.703125 36.254625 5.0075625 35.515625 4.6015625 C 35.402625 4.5395625 35.297266 4.5224375 35.197266 4.5234375 C 32.030016 2.8325625 28.259451 1.9479668 24.388672 2.0332031 z M 38.667969 7.2480469 L 36.138672 9.5625 L 38.419922 12.09375 L 40.958984 9.8105469 L 38.667969 7.2480469 z M 30.970703 7.9316406 L 27.058594 11.486328 L 30.578125 15.396484 L 34.484375 11.869141 L 30.970703 7.9316406 z M 22.271484 9.3710938 L 16.996094 14.150391 L 21.755859 19.445312 L 27.042969 14.671875 L 22.271484 9.3710938 z M 42.15625 15.435547 L 39.634766 17.732422 L 41.933594 20.275391 L 44.474609 17.970703 L 42.15625 15.435547 z M 34.753906 16.238281 L 30.847656 19.779297 L 34.365234 23.705078 L 38.28125 20.164062 L 34.753906 16.238281 z M 26.197266 18.761719 L 20.919922 23.552734 L 25.689453 28.847656 L 30.951172 24.0625 L 26.197266 18.761719 z M 45.671875 23.617188 L 43.136719 25.898438 L 45.4375 28.441406 L 47.978516 26.154297 L 45.671875 23.617188 z M 38.269531 24.966797 L 34.363281 28.498047 L 37.884766 32.429688 L 41.794922 28.880859 L 38.269531 24.966797 z M 30.095703 28.279297 L 24.820312 33.050781 L 29.568359 38.359375 L 34.863281 33.580078 L 30.095703 28.279297 z M 41.869141 33.304688 L 37.978516 36.851562 L 41.503906 40.753906 L 45.421875 37.222656 L 41.869141 33.304688 z" />
</symbol><symbol viewBox="0 0 50 50" id="webmoney">
    <path d="M 24.388672 2.0332031 C 17.937373 2.1752637 11.208281 5.0090625 6.5351562 11.289062 C -1.0308437 21.461063 0.96507813 35.527547 11.080078 43.310547 C 15.375078 46.615547 20.271547 48.033203 24.935547 48.033203 C 30.038547 48.033203 34.846875 46.321016 38.296875 43.541016 L 38.34375 43.595703 L 39.845703 42.275391 L 34.755859 36.480469 L 32.634766 38.423828 C 31.513766 39.445828 30.433859 40.431312 29.380859 41.445312 C 27.678859 39.502313 25.952516 37.578297 24.228516 35.654297 C 23.397516 34.727297 22.567281 33.799141 21.738281 32.869141 C 21.690281 32.816141 21.644609 32.761078 21.599609 32.705078 L 24.029297 30.433594 L 17.773438 23.369141 L 20.222656 21.074219 L 13.865234 13.996094 L 22.519531 6.1777344 L 25.714844 9.6347656 L 31.009766 4.9335938 C 31.054766 4.9475938 31.097578 4.9625625 31.142578 4.9765625 L 34.171875 8.2949219 L 37.003906 5.703125 C 37.003906 5.703125 36.254625 5.0075625 35.515625 4.6015625 C 35.402625 4.5395625 35.297266 4.5224375 35.197266 4.5234375 C 32.030016 2.8325625 28.259451 1.9479668 24.388672 2.0332031 z M 38.667969 7.2480469 L 36.138672 9.5625 L 38.419922 12.09375 L 40.958984 9.8105469 L 38.667969 7.2480469 z M 30.970703 7.9316406 L 27.058594 11.486328 L 30.578125 15.396484 L 34.484375 11.869141 L 30.970703 7.9316406 z M 22.271484 9.3710938 L 16.996094 14.150391 L 21.755859 19.445312 L 27.042969 14.671875 L 22.271484 9.3710938 z M 42.15625 15.435547 L 39.634766 17.732422 L 41.933594 20.275391 L 44.474609 17.970703 L 42.15625 15.435547 z M 34.753906 16.238281 L 30.847656 19.779297 L 34.365234 23.705078 L 38.28125 20.164062 L 34.753906 16.238281 z M 26.197266 18.761719 L 20.919922 23.552734 L 25.689453 28.847656 L 30.951172 24.0625 L 26.197266 18.761719 z M 45.671875 23.617188 L 43.136719 25.898438 L 45.4375 28.441406 L 47.978516 26.154297 L 45.671875 23.617188 z M 38.269531 24.966797 L 34.363281 28.498047 L 37.884766 32.429688 L 41.794922 28.880859 L 38.269531 24.966797 z M 30.095703 28.279297 L 24.820312 33.050781 L 29.568359 38.359375 L 34.863281 33.580078 L 30.095703 28.279297 z M 41.869141 33.304688 L 37.978516 36.851562 L 41.503906 40.753906 L 45.421875 37.222656 L 41.869141 33.304688 z" />
</symbol><symbol viewBox="0 0 167.748 167.748" id="yandexmoney">
<g>
	<g>
		<path d="M151.383,49.067h-4.791v61.178c0,5.549-4.499,11.916-10.06,14.201l-105.22,43.302h120.071
			c5.561,0,10.06-4.511,10.06-10.06V59.115C161.443,53.578,156.944,49.067,151.383,49.067z" />
		<path d="M131.597,0.819L16.365,48.243c-5.561,2.285-10.06,8.652-10.06,14.195v98.567
			c0,5.543,4.499,8.204,10.06,5.919L131.597,119.5c5.561-2.285,10.06-8.646,10.06-14.201V6.738
			C141.657,1.2,137.158-1.467,131.597,0.819z M121.226,69.497c-4.069,1.36-7.351-0.853-7.351-4.911c0-4.069,3.288-8.449,7.351-9.804
			c4.063-1.354,7.351,0.853,7.351,4.923C128.578,63.769,125.278,68.149,121.226,69.497z" />
	</g>
</g>
<g>
</g>
<g>
</g>
<g>
</g>
<g>
</g>
<g>
</g>
<g>
</g>
<g>
</g>
<g>
</g>
<g>
</g>
<g>
</g>
<g>
</g>
<g>
</g>
<g>
</g>
<g>
</g>
<g>
</g>
</symbol><symbol viewBox="0 0 167.748 167.748" id="yandexmoney">
<g>
	<g>
		<path d="M151.383,49.067h-4.791v61.178c0,5.549-4.499,11.916-10.06,14.201l-105.22,43.302h120.071
			c5.561,0,10.06-4.511,10.06-10.06V59.115C161.443,53.578,156.944,49.067,151.383,49.067z" />
		<path d="M131.597,0.819L16.365,48.243c-5.561,2.285-10.06,8.652-10.06,14.195v98.567
			c0,5.543,4.499,8.204,10.06,5.919L131.597,119.5c5.561-2.285,10.06-8.646,10.06-14.201V6.738
			C141.657,1.2,137.158-1.467,131.597,0.819z M121.226,69.497c-4.069,1.36-7.351-0.853-7.351-4.911c0-4.069,3.288-8.449,7.351-9.804
			c4.063-1.354,7.351,0.853,7.351,4.923C128.578,63.769,125.278,68.149,121.226,69.497z" />
	</g>
</g>
<g>
</g>
<g>
</g>
<g>
</g>
<g>
</g>
<g>
</g>
<g>
</g>
<g>
</g>
<g>
</g>
<g>
</g>
<g>
</g>
<g>
</g>
<g>
</g>
<g>
</g>
<g>
</g>
<g>
</g>
</symbol></defs></svg>